<svg viewBox="0 0 24 24" xmlns="http://www.w3.org/2000/svg">
<path fill-rule="evenodd" clip-rule="evenodd" d="M6.75 9C6.75 6.10051 9.10051 3.75 12 3.75C14.8995 3.75 17.25 6.10051 17.25 9C17.25 10.6023 16.5322 12.037 15.4005 13H15.25V13.1234C14.3561 13.8289 13.2272 14.25 12 14.25C10.7728 14.25 9.64393 13.8289 8.75 13.1234V13H8.59947C7.46784 12.037 6.75 10.6023 6.75 9ZM7.25 13.7958C6.015 12.5726 5.25 10.8756 5.25 9C5.25 5.27208 8.27208 2.25 12 2.25C15.7279 2.25 18.75 5.27208 18.75 9C18.75 10.8756 17.985 12.5726 16.75 13.7958V19.382C16.75 20.6829 15.381 21.529 14.2174 20.9472L12.1118 19.8944C12.0414 19.8592 11.9586 19.8592 11.8882 19.8944L9.78262 20.9472C8.61905 21.529 7.25 20.6829 7.25 19.382V13.7958ZM8.75 14.9175V19.382C8.75 19.5678 8.94558 19.6887 9.1118 19.6056L11.2174 18.5528C11.71 18.3064 12.29 18.3064 12.7826 18.5528L14.8882 19.6056C15.0544 19.6887 15.25 19.5678 15.25 19.382V14.9175C14.2859 15.4481 13.1782 15.75 12 15.75C10.8218 15.75 9.71408 15.4481 8.75 14.9175Z" />
</svg>
