<svg viewBox="0 0 16 16" xmlns="http://www.w3.org/2000/svg">
<g id="icon/calendar">
<path id="Vector" fill-rule="evenodd" clip-rule="evenodd" d="M5.83333 1.33337C5.83333 1.05723 5.60948 0.833374 5.33333 0.833374C5.05719 0.833374 4.83333 1.05723 4.83333 1.33337V2.83337H3.33333C2.32081 2.83337 1.5 3.65419 1.5 4.66671V12.6667C1.5 13.6792 2.32081 14.5 3.33333 14.5H12.6667C13.6792 14.5 14.5 13.6792 14.5 12.6667V4.66671C14.5 3.65419 13.6792 2.83337 12.6667 2.83337H11.1667V1.33337C11.1667 1.05723 10.9428 0.833374 10.6667 0.833374C10.3905 0.833374 10.1667 1.05723 10.1667 1.33337V2.83337H5.83333V1.33337ZM5.33333 3.83337H10.6667H12.6667C13.1269 3.83337 13.5 4.20647 13.5 4.66671V6.83337H2.5V4.66671C2.5 4.20647 2.8731 3.83337 3.33333 3.83337H5.33333ZM2.5 7.83337V12.6667C2.5 13.1269 2.8731 13.5 3.33333 13.5H12.6667C13.1269 13.5 13.5 13.1269 13.5 12.6667V7.83337H2.5Z"/>
</g>
</svg>
