<svg viewBox="0 0 18 18" xmlns="http://www.w3.org/2000/svg">
<g id="icon/check-circle">
<path id="Vector" fill-rule="evenodd" clip-rule="evenodd" d="M2.8125 9C2.8125 5.58274 5.58274 2.8125 9 2.8125C12.4173 2.8125 15.1875 5.58274 15.1875 9C15.1875 12.4173 12.4173 15.1875 9 15.1875C5.58274 15.1875 2.8125 12.4173 2.8125 9ZM9 1.6875C4.96142 1.6875 1.6875 4.96142 1.6875 9C1.6875 13.0386 4.96142 16.3125 9 16.3125C13.0386 16.3125 16.3125 13.0386 16.3125 9C16.3125 4.96142 13.0386 1.6875 9 1.6875ZM12.3977 7.52275C12.6174 7.30308 12.6174 6.94692 12.3977 6.72725C12.1781 6.50758 11.8219 6.50758 11.6023 6.72725L8.25 10.0795L6.39775 8.22725C6.17808 8.00758 5.82192 8.00758 5.60225 8.22725C5.38258 8.44692 5.38258 8.80308 5.60225 9.02275L8.25 11.6705L12.3977 7.52275Z" />
</g>
</svg>
