<svg width="28" height="28" viewBox="0 0 28 28" fill="none" xmlns="http://www.w3.org/2000/svg">
<g id="icon/clock">
<path id="Vector" fill-rule="evenodd" clip-rule="evenodd" d="M4.375 14C4.375 8.68426 8.68426 4.375 14 4.375C19.3157 4.375 23.625 8.68426 23.625 14C23.625 19.3157 19.3157 23.625 14 23.625C8.68426 23.625 4.375 19.3157 4.375 14ZM14 2.625C7.71776 2.625 2.625 7.71776 2.625 14C2.625 20.2822 7.71776 25.375 14 25.375C20.2822 25.375 25.375 20.2822 25.375 14C25.375 7.71776 20.2822 2.625 14 2.625ZM14.875 8.16667C14.875 7.68342 14.4832 7.29167 14 7.29167C13.5168 7.29167 13.125 7.68342 13.125 8.16667V16.0417H19.8333C20.3166 16.0417 20.7083 15.6499 20.7083 15.1667C20.7083 14.6834 20.3166 14.2917 19.8333 14.2917H14.875V8.16667Z" fill="#121212"/>
</g>
</svg>
