<svg
      viewBox="0 0 16 16"
      xmlns="http://www.w3.org/2000/svg"
    >
      <g id="icon/group">
        <path
          id="Vector"
          fill-rule="evenodd"
          clip-rule="evenodd"
          d="M2.5 8C2.5 4.96243 4.96243 2.5 8 2.5C11.0376 2.5 13.5 4.96243 13.5 8C13.5 11.0376 11.0376 13.5 8 13.5C4.96243 13.5 2.5 11.0376 2.5 8ZM8 1.5C4.41015 1.5 1.5 4.41015 1.5 8C1.5 11.5899 4.41015 14.5 8 14.5C11.5899 14.5 14.5 11.5899 14.5 8C14.5 4.41015 11.5899 1.5 8 1.5ZM8 6.66667C8.73638 6.66667 9.33333 6.06971 9.33333 5.33333C9.33333 4.59695 8.73638 4 8 4C7.26362 4 6.66667 4.59695 6.66667 5.33333C6.66667 6.06971 7.26362 6.66667 8 6.66667ZM6.66667 9.33333C6.66667 10.0697 6.06971 10.6667 5.33333 10.6667C4.59695 10.6667 4 10.0697 4 9.33333C4 8.59695 4.59695 8 5.33333 8C6.06971 8 6.66667 8.59695 6.66667 9.33333ZM10.6667 10.6667C11.403 10.6667 12 10.0697 12 9.33333C12 8.59695 11.403 8 10.6667 8C9.93029 8 9.33333 8.59695 9.33333 9.33333C9.33333 10.0697 9.93029 10.6667 10.6667 10.6667Z"
        />
      </g>
    </svg>