<svg viewBox="0 0 17 16"  xmlns="http://www.w3.org/2000/svg">
<g id="icon/crown">
<path id="Vector" fill-rule="evenodd" clip-rule="evenodd" d="M8.49972 3.38969L10.0929 6.37743L10.0958 6.38285C10.1739 6.52492 10.2825 6.64764 10.4135 6.74252C10.5445 6.83738 10.6947 6.90214 10.8533 6.93253C11.0119 6.96291 11.1753 6.95824 11.3319 6.91881C11.4885 6.87938 11.6348 6.80608 11.7601 6.70378L13.8303 4.95194L12.3073 10.3913C12.3022 10.4096 12.2907 10.4273 12.2736 10.4403C12.2566 10.4532 12.2351 10.4608 12.2123 10.4613H4.78737C4.76445 10.4609 4.74289 10.4532 4.72587 10.4403C4.70869 10.4273 4.69733 10.41 4.69221 10.3916L3.16969 4.95261L5.23247 6.69868L5.23932 6.70438C5.36464 6.80668 5.51091 6.87998 5.66753 6.9194C5.82414 6.95883 5.98754 6.9635 6.14613 6.93312C6.30473 6.90274 6.45494 6.83797 6.58592 6.74311C6.71692 6.64823 6.82553 6.52551 6.90355 6.38344L8.49972 3.38969ZM8.09496 2.27593C8.21795 2.20413 8.35771 2.1665 8.4997 2.1665C8.6417 2.1665 8.78146 2.20413 8.90445 2.27593C9.02748 2.34776 9.12953 2.45136 9.1993 2.57653L9.20382 2.58465L10.9732 5.903C10.9796 5.91418 10.9887 5.92438 11.0001 5.93262C11.012 5.94125 11.0261 5.94745 11.0414 5.95039C11.0568 5.95333 11.0726 5.95287 11.0877 5.94907C11.1019 5.94549 11.1148 5.93913 11.1257 5.93072L13.6876 3.76266L13.6974 3.75456C13.8289 3.64891 13.9902 3.58778 14.1578 3.57898C14.3255 3.57018 14.4921 3.61409 14.6338 3.70514C14.7756 3.79625 14.8856 3.9302 14.9467 4.08853C15.0079 4.24694 15.0167 4.42076 14.9716 4.58461L14.971 4.58682L13.2703 10.6606C13.2703 10.6607 13.2704 10.6605 13.2703 10.6606C13.206 10.8908 13.0677 11.0931 12.8779 11.2371C12.6881 11.381 12.4567 11.4594 12.219 11.4612L12.215 11.4613L4.78151 11.4613C4.54357 11.4596 4.31199 11.3814 4.12197 11.2374C3.93184 11.0933 3.79344 10.8911 3.72907 10.6606L2.0284 4.58521C1.98333 4.42136 1.9921 4.24754 2.05328 4.08912C2.11442 3.93079 2.22439 3.79685 2.3662 3.70573C2.50793 3.61468 2.67456 3.57077 2.8422 3.57957C3.00985 3.58837 3.17108 3.64951 3.30257 3.75515L3.31244 3.76329L5.87372 5.93132C5.87304 5.9308 5.87237 5.93026 5.8717 5.92972L5.55551 6.31705L5.87855 5.93541L5.87372 5.93132C5.88458 5.93973 5.89747 5.94609 5.91166 5.94966C5.92676 5.95346 5.94262 5.95392 5.95798 5.95098C5.97332 5.94804 5.98743 5.94185 5.99935 5.93322C6.01073 5.92497 6.01976 5.91478 6.02618 5.9036L6.02408 5.90753L6.46529 6.14276L6.02703 5.90208C6.02675 5.90258 6.02647 5.90309 6.02618 5.9036L7.80003 2.57649C7.8698 2.45131 7.97192 2.34776 8.09496 2.27593ZM3.79886 13.3332C3.79886 13.057 4.02272 12.8332 4.29886 12.8332H12.7005C12.9767 12.8332 13.2005 13.057 13.2005 13.3332C13.2005 13.6093 12.9767 13.8332 12.7005 13.8332H4.29886C4.02272 13.8332 3.79886 13.6093 3.79886 13.3332Z"/>
</g>
</svg>
