<svg viewBox="0 0 16 16" xmlns="http://www.w3.org/2000/svg">
<path fill-rule="evenodd" clip-rule="evenodd" d="M8 2.5C4.96243 2.5 2.5 4.96243 2.5 8C2.5 11.0376 4.96243 13.5 8 13.5C11.0376 13.5 13.5 11.0376 13.5 8C13.5 4.96243 11.0376 2.5 8 2.5ZM1.5 8C1.5 4.41015 4.41015 1.5 8 1.5C11.5899 1.5 14.5 4.41015 14.5 8C14.5 11.5899 11.5899 14.5 8 14.5C4.41015 14.5 1.5 11.5899 1.5 8ZM8 5.16667C8.27614 5.16667 8.5 5.39052 8.5 5.66667V7.66667C8.5 7.94281 8.27614 8.16667 8 8.16667C7.72386 8.16667 7.5 7.94281 7.5 7.66667V5.66667C7.5 5.39052 7.72386 5.16667 8 5.16667ZM8.5 9.66667C8.5 9.39052 8.27614 9.16667 8 9.16667C7.72386 9.16667 7.5 9.39052 7.5 9.66667V10.3333C7.5 10.6095 7.72386 10.8333 8 10.8333C8.27614 10.8333 8.5 10.6095 8.5 10.3333V9.66667Z"/>
</svg>
