<svg viewBox="0 0 24 24" xmlns="http://www.w3.org/2000/svg">
<path fill-rule="evenodd" clip-rule="evenodd" d="M11.1769 4.71675C11.6482 4.30438 12.3518 4.30438 12.8231 4.71675L18.8231 9.96675C19.0944 10.2041 19.25 10.547 19.25 10.9075V18.9999C19.25 19.6903 18.6904 20.2499 18 20.2499H6C5.30964 20.2499 4.75 19.6903 4.75 18.9999V10.9075C4.75 10.547 4.9056 10.2041 5.17687 9.96675L11.1769 4.71675ZM13.8109 3.58789C12.7741 2.68067 11.2259 2.68066 10.1891 3.58788L4.18911 8.83789C3.59232 9.36008 3.25 10.1145 3.25 10.9075V18.9999C3.25 20.5187 4.48122 21.7499 6 21.7499H18C19.5188 21.7499 20.75 20.5187 20.75 18.9999V10.9075C20.75 10.1145 20.4077 9.36008 19.8109 8.83789L13.8109 3.58789ZM8 16.25C7.58579 16.25 7.25 16.5858 7.25 17C7.25 17.4142 7.58579 17.75 8 17.75H16C16.4142 17.75 16.75 17.4142 16.75 17C16.75 16.5858 16.4142 16.25 16 16.25H8Z"/>
</svg>
