<svg viewBox="0 0 16 16"  xmlns="http://www.w3.org/2000/svg">
<g id="icon/map-pin">
<path id="Vector" fill-rule="evenodd" clip-rule="evenodd" d="M5.31473 3.31467C6.10956 2.78359 7.04403 2.50012 7.99996 2.50012C8.95589 2.50012 9.89036 2.78359 10.6852 3.31467C11.48 3.84575 12.0995 4.6006 12.4654 5.48376C12.8312 6.36692 12.9269 7.33873 12.7404 8.2763C12.554 9.21387 12.0937 10.0751 11.4177 10.751L8.58925 13.5795C8.433 13.7356 8.22116 13.8233 8.0003 13.8233C7.77943 13.8233 7.56759 13.7356 7.41134 13.5795L4.58214 10.751C3.90624 10.075 3.44595 9.21384 3.25948 8.2763C3.07301 7.33873 3.16874 6.36692 3.53457 5.48376C3.9004 4.6006 4.5199 3.84575 5.31473 3.31467ZM7.99996 1.50012C6.84625 1.50012 5.71845 1.84223 4.75917 2.4832C3.79989 3.12416 3.05221 4.03518 2.61069 5.10107C2.16917 6.16695 2.05364 7.33982 2.27869 8.47137C2.50375 9.60292 3.05934 10.6424 3.87512 11.4582L6.70459 14.287C7.04835 14.6304 7.51439 14.8233 8.0003 14.8233C8.48621 14.8233 8.95242 14.6302 9.29618 14.2868L12.1249 11.4581C12.9406 10.6423 13.4962 9.60292 13.7212 8.47137C13.9463 7.33982 13.8308 6.16695 13.3892 5.10107C12.9477 4.03518 12.2 3.12416 11.2408 2.4832C10.2815 1.84223 9.15367 1.50012 7.99996 1.50012ZM7.99996 4.83329C7.33692 4.83329 6.70103 5.09668 6.23219 5.56553C5.76335 6.03437 5.49996 6.67025 5.49996 7.33329C5.49996 7.99633 5.76335 8.63222 6.23219 9.10106C6.70103 9.5699 7.33692 9.83329 7.99996 9.83329C8.663 9.83329 9.29889 9.5699 9.76773 9.10106C10.2366 8.63222 10.5 7.99633 10.5 7.33329C10.5 6.67025 10.2366 6.03437 9.76773 5.56553C9.29889 5.09668 8.663 4.83329 7.99996 4.83329ZM6.9393 6.27263C7.2206 5.99133 7.60213 5.83329 7.99996 5.83329C8.39778 5.83329 8.77932 5.99133 9.06062 6.27263C9.34192 6.55394 9.49996 6.93547 9.49996 7.33329C9.49996 7.73112 9.34192 8.11265 9.06062 8.39395C8.77932 8.67526 8.39778 8.83329 7.99996 8.83329C7.60213 8.83329 7.2206 8.67526 6.9393 8.39395C6.65799 8.11265 6.49996 7.73112 6.49996 7.33329C6.49996 6.93547 6.65799 6.55394 6.9393 6.27263Z"/>
</g>
</svg>
