<svg viewBox="0 0 16 16" xmlns="http://www.w3.org/2000/svg">
<g id="icon/map">
<path id="Vector" fill-rule="evenodd" clip-rule="evenodd" d="M10.5 3.60096V10.4138C10.5505 10.4378 10.5997 10.4656 10.6472 10.4972L13.2409 12.2264C13.3516 12.3002 13.5 12.2208 13.5 12.0877V5.69016C13.5 5.63443 13.4722 5.58239 13.4258 5.55148L10.5 3.60096ZM9.5 10.4138V3.60096L6.64715 5.50286C6.5997 5.5345 6.55051 5.5623 6.5 5.58627V12.3991L9.35285 10.4972C9.4003 10.4656 9.44949 10.4378 9.5 10.4138ZM5.35285 5.50286C5.4003 5.5345 5.44949 5.5623 5.5 5.58627V12.5244L2.59213 11.0704C2.53567 11.0422 2.5 10.9845 2.5 10.9213V3.91238C2.5 3.77926 2.64836 3.69987 2.75912 3.77371L5.35285 5.50286ZM9.35285 2.49721C9.74473 2.23596 10.2553 2.23596 10.6472 2.49721L13.9805 4.71943C14.305 4.93581 14.5 5.30008 14.5 5.69016V12.0877C14.5 13.0195 13.4615 13.5753 12.6862 13.0584L10.0925 11.3293C10.0365 11.2919 9.96353 11.2919 9.90755 11.3293L6.59926 13.5348C6.2509 13.767 5.80482 13.7948 5.43036 13.6076L2.14492 11.9648C1.74967 11.7672 1.5 11.3632 1.5 10.9213V3.91238C1.5 2.98057 2.5385 2.42478 3.31382 2.94166L5.90755 4.67081C5.96353 4.70813 6.03647 4.70813 6.09245 4.67081L9.35285 2.49721Z"/>
</g>
</svg>
