 <svg
      viewBox="0 0 16 16"
      xmlns="http://www.w3.org/2000/svg"
    >
      <g id="icon/phone">
        <path
          id="Vector"
          fill-rule="evenodd"
          clip-rule="evenodd"
          d="M3.79119 1.6751C4.03872 1.55977 4.30848 1.5 4.58155 1.5C4.85463 1.5 5.12439 1.55977 5.37191 1.6751C5.61245 1.78718 5.82631 1.9491 5.99939 2.15002L7.03449 3.18693C7.03447 3.18691 7.0345 3.18694 7.03449 3.18693C7.40653 3.55954 7.61553 4.06463 7.61553 4.59119C7.61553 5.11774 7.40658 5.62279 7.03454 5.9954C7.03452 5.99541 7.03455 5.99538 7.03454 5.9954L6.50997 6.52088C6.32513 6.70599 6.22125 6.95697 6.22125 7.2186C6.22125 7.48021 6.32506 7.73112 6.50987 7.91622C6.50986 7.91621 6.50989 7.91624 6.50987 7.91622L8.08528 9.49353C8.17659 9.5851 8.28536 9.65805 8.40478 9.70762C8.52419 9.75718 8.65222 9.7827 8.78151 9.7827C8.9108 9.7827 9.03882 9.75718 9.15824 9.70762C9.27766 9.65805 9.38613 9.5854 9.47743 9.49383L10.0033 8.96786C10.3756 8.59577 10.8806 8.38663 11.4069 8.38663C11.9332 8.38663 12.438 8.59564 12.8103 8.96771C12.8103 8.9677 12.8103 8.96772 12.8103 8.96771L13.8475 10.0042C14.0501 10.1779 14.2116 10.3922 14.3238 10.6322C14.4399 10.8804 14.5 11.151 14.5 11.425C14.5 11.699 14.4399 11.9697 14.3238 12.2179C14.2111 12.4589 14.0484 12.673 13.8465 12.846C12.3621 14.3243 10.7173 14.7407 9.06734 14.3753C7.45299 14.0177 5.88959 12.9252 4.47998 11.5154C3.07029 10.1055 1.97834 8.54113 1.62298 6.92627C1.25975 5.27565 1.68023 3.63121 3.16424 2.14941C3.33723 1.94877 3.5509 1.78707 3.79119 1.6751ZM4.58155 2.5C4.45441 2.5 4.32881 2.52783 4.21356 2.58153C4.0983 2.63523 3.99619 2.71351 3.9144 2.81088C3.90472 2.82239 3.89454 2.83346 3.88387 2.84405C2.61752 4.10151 2.31264 5.40729 2.59961 6.71135C2.89567 8.05673 3.83598 9.45704 5.18712 10.8083C6.53834 12.1597 7.93805 13.1009 9.28359 13.3989C10.588 13.6878 11.8944 13.3857 13.1539 12.1244C13.1646 12.1138 13.1757 12.1036 13.1872 12.094C13.2851 12.0122 13.3639 11.9099 13.4179 11.7943C13.472 11.6787 13.5 11.5526 13.5 11.425C13.5 11.2974 13.472 11.1714 13.4179 11.0558C13.3634 10.9391 13.2851 10.8371 13.1881 10.7561C13.1766 10.7466 13.1657 10.7365 13.1552 10.726L12.1035 9.67507C11.9187 9.49039 11.6681 9.38663 11.4069 9.38663C11.1457 9.38663 10.8952 9.49036 10.7104 9.67504L10.1856 10.1999C10.1855 10.2 10.1856 10.1998 10.1856 10.1999C10.0014 10.3845 9.78244 10.5312 9.5416 10.6312C9.30067 10.7312 9.04237 10.7827 8.78151 10.7827C8.52064 10.7827 8.26234 10.7312 8.02141 10.6312C7.78055 10.5312 7.56178 10.3847 7.37763 10.2001C7.37757 10.2 7.37768 10.2001 7.37763 10.2001L5.80234 8.62291C5.43027 8.25029 5.22125 7.74518 5.22125 7.2186C5.22125 6.69204 5.43021 6.187 5.80225 5.81439C5.80223 5.81441 5.80226 5.81437 5.80225 5.81439L6.32681 5.28891C6.51165 5.1038 6.61553 4.85282 6.61553 4.59119C6.61553 4.32955 6.5117 4.07863 6.32686 3.89352L5.27768 2.8425C5.26758 2.83238 5.25791 2.82183 5.24871 2.81088C5.16691 2.71351 5.0648 2.63523 4.94955 2.58153C4.8343 2.52783 4.7087 2.5 4.58155 2.5Z"
        />
      </g>
    </svg>