<svg viewBox="0 0 20 20" xmlns="http://www.w3.org/2000/svg">
<g id="icon/search">
<path id="Vector" fill-rule="evenodd" clip-rule="evenodd" d="M3.125 8.33333C3.125 5.45685 5.45685 3.125 8.33333 3.125C11.2098 3.125 13.5417 5.45685 13.5417 8.33333C13.5417 11.2098 11.2098 13.5417 8.33333 13.5417C5.45685 13.5417 3.125 11.2098 3.125 8.33333ZM8.33333 1.875C4.76649 1.875 1.875 4.76649 1.875 8.33333C1.875 11.9002 4.76649 14.7917 8.33333 14.7917C9.89168 14.7917 11.3211 14.2397 12.4368 13.3207L17.0581 17.9419C17.3021 18.186 17.6979 18.186 17.9419 17.9419C18.186 17.6979 18.186 17.3021 17.9419 17.0581L13.3207 12.4368C14.2397 11.3211 14.7917 9.89168 14.7917 8.33333C14.7917 4.76649 11.9002 1.875 8.33333 1.875Z"/>
</g>
</svg>
