<svg viewBox="0 0 25 24" xmlns="http://www.w3.org/2000/svg">
<path id="Star 2" d="M10.0624 1.48622C11.0834 -0.495406 13.9166 -0.495406 14.9376 1.48622C15.551 2.67695 16.935 3.2502 18.2107 2.84201C20.3339 2.1627 22.3373 4.16612 21.658 6.28925C21.2498 7.56501 21.823 8.94897 23.0138 9.56243C24.9954 10.5834 24.9954 13.4166 23.0138 14.4376C21.823 15.051 21.2498 16.435 21.658 17.7107C22.3373 19.8339 20.3339 21.8373 18.2107 21.158C16.935 20.7498 15.551 21.323 14.9376 22.5138C13.9166 24.4954 11.0834 24.4954 10.0624 22.5138C9.44897 21.323 8.06501 20.7498 6.78925 21.158C4.66612 21.8373 2.6627 19.8339 3.34201 17.7107C3.7502 16.435 3.17695 15.051 1.98622 14.4376C0.00459358 13.4166 0.0045937 10.5834 1.98622 9.56243C3.17695 8.94897 3.7502 7.56501 3.34201 6.28925C2.6627 4.16612 4.66612 2.1627 6.78925 2.84201C8.06501 3.2502 9.44897 2.67695 10.0624 1.48622Z" />
</svg>
