<svg viewBox="0 0 16 16" xmlns="http://www.w3.org/2000/svg">
<path fill-rule="evenodd" clip-rule="evenodd" d="M2.5 8C2.5 4.96243 4.96243 2.5 8 2.5C11.0376 2.5 13.5 4.96243 13.5 8C13.5 11.0376 11.0376 13.5 8 13.5C4.96243 13.5 2.5 11.0376 2.5 8ZM8 1.5C4.41015 1.5 1.5 4.41015 1.5 8C1.5 11.5899 4.41015 14.5 8 14.5C11.5899 14.5 14.5 11.5899 14.5 8C14.5 4.41015 11.5899 1.5 8 1.5ZM11.0202 6.68689C11.2155 6.49162 11.2155 6.17504 11.0202 5.97978C10.825 5.78452 10.5084 5.78452 10.3131 5.97978L7.33333 8.95956L5.68689 7.31311C5.49162 7.11785 5.17504 7.11785 4.97978 7.31311C4.78452 7.50838 4.78452 7.82496 4.97978 8.02022L7.33333 10.3738L11.0202 6.68689Z"/>
</svg>
