<svg viewBox="0 0 16 16" xmlns="http://www.w3.org/2000/svg">
<g id="icon/team">
<path id="Vector" fill-rule="evenodd" clip-rule="evenodd" d="M8.00004 3.16675C7.17161 3.16675 6.50004 3.83832 6.50004 4.66675C6.50004 5.49517 7.17161 6.16675 8.00004 6.16675C8.82847 6.16675 9.50004 5.49517 9.50004 4.66675C9.50004 3.83832 8.82847 3.16675 8.00004 3.16675ZM5.50004 4.66675C5.50004 3.28604 6.61933 2.16675 8.00004 2.16675C9.38075 2.16675 10.5 3.28604 10.5 4.66675C10.5 6.04746 9.38075 7.16675 8.00004 7.16675C6.61933 7.16675 5.50004 6.04746 5.50004 4.66675ZM3.66671 5.83341C3.39056 5.83341 3.16671 6.05727 3.16671 6.33341C3.16671 6.60956 3.39056 6.83341 3.66671 6.83341C3.94285 6.83341 4.16671 6.60956 4.16671 6.33341C4.16671 6.05727 3.94285 5.83341 3.66671 5.83341ZM2.16671 6.33341C2.16671 5.50499 2.83828 4.83341 3.66671 4.83341C4.49513 4.83341 5.16671 5.50499 5.16671 6.33341C5.16671 7.16184 4.49513 7.83341 3.66671 7.83341C2.83828 7.83341 2.16671 7.16184 2.16671 6.33341ZM12.3334 5.83341C12.0572 5.83341 11.8334 6.05727 11.8334 6.33341C11.8334 6.60956 12.0572 6.83341 12.3334 6.83341C12.6095 6.83341 12.8334 6.60956 12.8334 6.33341C12.8334 6.05727 12.6095 5.83341 12.3334 5.83341ZM10.8334 6.33341C10.8334 5.50499 11.5049 4.83341 12.3334 4.83341C13.1618 4.83341 13.8334 5.50499 13.8334 6.33341C13.8334 7.16184 13.1618 7.83341 12.3334 7.83341C11.5049 7.83341 10.8334 7.16184 10.8334 6.33341ZM2.54408 10.8334H1.89732C2.06463 10.2953 2.54267 9.89416 3.12156 9.83972C3.36786 9.49641 3.6495 9.18016 3.96116 8.89631C3.78419 8.85516 3.59978 8.83341 3.4103 8.83341H3.25645C1.91822 8.83341 0.833374 9.91826 0.833374 11.2565C0.833374 11.5751 1.09167 11.8334 1.4103 11.8334H2.18907C2.27823 11.487 2.39756 11.1527 2.54408 10.8334ZM13.811 11.8334H14.5898C14.9084 11.8334 15.1667 11.5751 15.1667 11.2565C15.1667 9.91826 14.0819 8.83341 12.7436 8.83341H12.5898C12.4003 8.83341 12.2159 8.85517 12.0389 8.89631C12.3506 9.18016 12.6322 9.49641 12.8785 9.83972C13.4574 9.89415 13.9354 10.2953 14.1028 10.8334H13.456C13.6025 11.1527 13.7219 11.487 13.811 11.8334ZM8.17953 9.16675C10.2737 9.16675 11.9908 10.7812 12.154 12.8334H3.84607C4.0093 10.7812 5.72639 9.16675 7.82055 9.16675H8.17953ZM7.82055 8.16675C5.06621 8.16675 2.83337 10.3996 2.83337 13.1539C2.83337 13.5292 3.13759 13.8334 3.51286 13.8334H12.4872C12.8625 13.8334 13.1667 13.5292 13.1667 13.1539C13.1667 10.3996 10.9339 8.16675 8.17953 8.16675H7.82055Z"/>
</g>
</svg>
