<?xml version="1.0" encoding="utf-8"?>

<!DOCTYPE svg PUBLIC "-//W3C//DTD SVG 1.1//EN" "http://www.w3.org/Graphics/SVG/1.1/DTD/svg11.dtd">
<!-- Uploaded to: SVG Repo, www.svgrepo.com, Generator: SVG Repo Mixer Tools -->
<svg height="800px" width="800px" version="1.1" id="_x32_" xmlns="http://www.w3.org/2000/svg" xmlns:xlink="http://www.w3.org/1999/xlink" 
	 viewBox="0 0 512 512"  xml:space="preserve">
<style type="text/css">
	.st0{fill:#d1d5db;}
</style>
<g>
	<path class="st0" d="M468.419,113.18c-7.646-11.517-16.52-22.553-26.337-33.024c-0.975-1.046-1.936-2.014-2.91-2.902
		c-49.937-51.392-116.629-77.25-183.164-77.25c-24.418,0-48.82,3.462-72.498,10.47c-20.468,5.962-40.45,14.663-59.22,26.023
		c-15.544,9.259-30.364,20.46-44.131,33.424C26.904,120.189,0,188.171,0,256.082c0,46.153,12.413,92.471,37.539,133.314
		c6.451,10.714,13.861,21.027,22.152,30.852c3.225,3.95,6.687,7.812,10.226,11.596c50.346,53.248,118.25,80.152,186.168,80.152
		c37.445,0,74.984-8.213,109.707-24.725c23.678-11.202,46.003-26.266,66.047-45.193c12.177-11.516,22.97-23.844,32.221-36.973
		c31.906-44.304,48.017-96.742,47.938-149.188C512.078,206.217,497.573,156.359,468.419,113.18z M84.612,369.487
		c-1.321,1.187-2.816,2.131-4.216,3.194c-0.032-0.039-0.063-0.079-0.079-0.118c-23.521-35.202-35.132-75.801-35.211-116.48
		c0.079-50.511,17.968-100.856,53.729-140.645c1.605-1.833,3.43-3.509,5.113-5.27c-0.44,2.864-0.959,5.687-1.258,8.606
		c-0.708,6.286-1.023,12.642-1.023,19.164c0,16.26,2.203,33.228,6.907,50.738c6.372,23.174,10.29,50.267,10.211,76.667
		c0.079,16.488-1.494,32.661-4.704,47.434c-4.798,22.223-13.514,40.843-25.85,53.335C87.051,367.283,85.871,368.463,84.612,369.487z
		 M286.042,464.711c-9.896,1.455-19.965,2.179-29.956,2.179c-56.072,0-111.814-22.074-153.381-66.055
		c-0.488-0.566-0.96-1.046-1.448-1.613c-0.141-0.15-0.251-0.307-0.393-0.457c1.416-1.078,2.848-2.131,4.17-3.28
		c5.742-4.79,10.761-10.211,15.245-16.103c11.784-15.316,19.556-33.535,24.512-53.02c4.94-19.47,6.986-40.214,6.986-61.02
		c0-29.618-4.248-59.227-11.312-85.383c-4.012-14.687-5.806-28.666-5.806-42.023c0-19.557,3.76-37.941,10.274-55.215
		c0.944-2.628,2.061-5.192,3.162-7.764c33.197-19.879,70.484-29.846,107.913-29.846c56.057,0,111.72,22.074,153.287,66.055
		c4.861,5.153,9.345,10.462,13.546,15.93c-0.74,1.25-1.306,2.548-2.124,3.775c-0.251,0.315-0.472,0.708-0.708,1.023
		c-9.817,14.372-25.692,27.8-50.66,38.562c-42.652,18.297-74.307,47.757-94.965,81.134c-20.657,33.386-30.632,70.688-30.632,105.561
		c0,32.284,8.48,62.838,26.384,86.319c4.406,5.822,9.44,11.155,15.088,15.868c1.888,1.612,3.965,3.036,5.995,4.5
		C289.487,464.12,287.772,464.475,286.042,464.711z M400.83,409.291c-17.92,16.921-38.043,29.892-59.297,39.285
		c-3.352-0.346-6.576-0.857-9.582-1.651c-4.782-1.094-9.188-2.746-13.278-4.783c-13.106-6.522-23.317-17.44-30.616-32.127
		c-7.316-14.686-11.312-32.984-11.312-52.863c0-28.587,8.323-60.163,25.676-88.199c17.448-28.044,43.675-52.627,79.956-68.179
		c24.118-10.289,42.809-23.796,56.324-39.277c1.258-1.424,2.407-2.872,3.571-4.319c0.362,0.7,0.818,1.368,1.18,2.076
		c15.701,30.208,23.442,63.397,23.442,96.664C466.893,311.982,444.819,367.724,400.83,409.291z"/>
</g>
</svg>