<svg width="16" height="16" viewBox="0 0 16 16" fill="none" xmlns="http://www.w3.org/2000/svg">
<path fill-rule="evenodd" clip-rule="evenodd" d="M2.66667 1.5C2.02233 1.5 1.5 2.02233 1.5 2.66667V10.6667C1.5 11.311 2.02233 11.8333 2.66667 11.8333H10.6667C11.311 11.8333 11.8333 11.311 11.8333 10.6667V2.66667C11.8333 2.02233 11.311 1.5 10.6667 1.5H2.66667ZM2.5 2.66667C2.5 2.57462 2.57462 2.5 2.66667 2.5H10.6667C10.7587 2.5 10.8333 2.57462 10.8333 2.66667V10.6667C10.8333 10.7587 10.7587 10.8333 10.6667 10.8333H2.66667C2.57462 10.8333 2.5 10.7587 2.5 10.6667V2.66667ZM14.5 5.33333C14.5 5.05719 14.2761 4.83333 14 4.83333C13.7239 4.83333 13.5 5.05719 13.5 5.33333V12.6667C13.5 13.1269 13.1269 13.5 12.6667 13.5H5.33333C5.05719 13.5 4.83333 13.7239 4.83333 14C4.83333 14.2761 5.05719 14.5 5.33333 14.5H12.6667C13.6792 14.5 14.5 13.6792 14.5 12.6667V5.33333Z" fill="#393939"/>
</svg>
