<svg viewBox="0 0 24 24" xmlns="http://www.w3.org/2000/svg">
<path fill-rule="evenodd" clip-rule="evenodd" d="M9.75 7C9.75 5.75736 10.7574 4.75 12 4.75C13.2426 4.75 14.25 5.75736 14.25 7C14.25 8.24264 13.2426 9.25 12 9.25C10.7574 9.25 9.75 8.24264 9.75 7ZM12 3.25C9.92893 3.25 8.25 4.92893 8.25 7C8.25 9.07107 9.92893 10.75 12 10.75C14.0711 10.75 15.75 9.07107 15.75 7C15.75 4.92893 14.0711 3.25 12 3.25ZM12.2692 13.75C15.4105 13.75 17.9861 16.1717 18.231 19.25H5.76904C6.01389 16.1717 8.58952 13.75 11.7308 13.75H12.2692ZM11.7308 12.25C7.59926 12.25 4.25 15.5993 4.25 19.7308C4.25 20.2937 4.70632 20.75 5.26923 20.75H18.7308C19.2937 20.75 19.75 20.2937 19.75 19.7308C19.75 15.5993 16.4007 12.25 12.2692 12.25H11.7308Z"/>
</svg>
