<svg viewBox="0 0 24 24" xmlns="http://www.w3.org/2000/svg">
<path fill-rule="evenodd" clip-rule="evenodd" d="M19.25 14.75C19.25 15.1642 19.5858 15.5 20 15.5C20.4142 15.5 20.75 15.1642 20.75 14.75C20.75 9.91751 16.8325 6 12 6C7.16751 6 3.25 9.91751 3.25 14.75C3.25 15.1642 3.58579 15.5 4 15.5C4.41421 15.5 4.75 15.1642 4.75 14.75C4.75 10.7459 7.99594 7.5 12 7.5C16.0041 7.5 19.25 10.7459 19.25 14.75ZM9.75 13.75C9.75 12.5074 10.7574 11.5 12 11.5C13.2426 11.5 14.25 12.5074 14.25 13.75C14.25 14.9926 13.2426 16 12 16C10.7574 16 9.75 14.9926 9.75 13.75ZM12 10C9.92893 10 8.25 11.6789 8.25 13.75C8.25 15.8211 9.92893 17.5 12 17.5C14.0711 17.5 15.75 15.8211 15.75 13.75C15.75 11.6789 14.0711 10 12 10Z" />
</svg>
