<svg viewBox="0 0 20 20" xmlns="http://www.w3.org/2000/svg">
<g id="icon/visible-off">
<path id="Vector" fill-rule="evenodd" clip-rule="evenodd" d="M3.82565 3.77547C4.06973 3.53139 4.46545 3.53139 4.70953 3.77547L6.71449 5.78042C7.70179 5.28128 8.81802 5.00008 9.99992 5.00008C14.027 5.00008 17.2916 8.26467 17.2916 12.2917C17.2916 12.6369 17.0118 12.9167 16.6666 12.9167C16.3214 12.9167 16.0416 12.6369 16.0416 12.2917C16.0416 8.95503 13.3366 6.25008 9.99992 6.25008C9.16863 6.25008 8.37656 6.41797 7.65576 6.72169L9.33777 8.4037C9.55119 8.35766 9.77272 8.33342 9.99992 8.33342C11.7258 8.33342 13.1249 9.73253 13.1249 11.4584C13.1249 11.6856 13.1007 11.9071 13.0546 12.1206L16.4946 15.5606C16.7387 15.8047 16.7387 16.2004 16.4946 16.4445C16.2533 16.6858 15.8637 16.6885 15.619 16.4526C15.6163 16.4498 15.6136 16.447 15.6109 16.4443L3.8258 4.6592C3.82306 4.65646 3.8203 4.65375 3.81752 4.65107C3.5816 4.4064 3.58431 4.0168 3.82565 3.77547ZM4.69157 7.29274C3.46186 8.59805 2.70825 10.3569 2.70825 12.2917C2.70825 12.6369 2.98807 12.9167 3.33325 12.9167C3.67843 12.9167 3.95825 12.6369 3.95825 12.2917C3.95825 10.7021 4.57221 9.2558 5.57593 8.1771L4.69157 7.29274ZM7.29363 9.8948C7.02734 10.3547 6.87492 10.8888 6.87492 11.4584C6.87492 13.1843 8.27403 14.5834 9.99992 14.5834C10.5696 14.5834 11.1036 14.431 11.5635 14.1647L10.6254 13.2266C10.4298 13.2958 10.2192 13.3334 9.99992 13.3334C8.96438 13.3334 8.12492 12.494 8.12492 11.4584C8.12492 11.2391 8.16258 11.0286 8.23178 10.8329L7.29363 9.8948ZM10.6238 9.6897L11.7686 10.8346C11.5804 10.3009 11.1575 9.87794 10.6238 9.6897Z"/>
</g>
</svg>
