<svg width="20" height="20" viewBox="0 0 20 20" fill="none" xmlns="http://www.w3.org/2000/svg">
<g id="icon/visible">
<path id="Vector" fill-rule="evenodd" clip-rule="evenodd" d="M16.0416 12.2917C16.0416 12.6368 16.3215 12.9167 16.6666 12.9167C17.0118 12.9167 17.2916 12.6368 17.2916 12.2917C17.2916 8.26459 14.0271 5 9.99998 5C5.9729 5 2.70831 8.26459 2.70831 12.2917C2.70831 12.6368 2.98814 12.9167 3.33331 12.9167C3.67849 12.9167 3.95831 12.6368 3.95831 12.2917C3.95831 8.95495 6.66326 6.25 9.99998 6.25C13.3367 6.25 16.0416 8.95495 16.0416 12.2917ZM8.12498 11.4583C8.12498 10.4228 8.96445 9.58333 9.99998 9.58333C11.0355 9.58333 11.875 10.4228 11.875 11.4583C11.875 12.4939 11.0355 13.3333 9.99998 13.3333C8.96445 13.3333 8.12498 12.4939 8.12498 11.4583ZM9.99998 8.33333C8.27409 8.33333 6.87498 9.73244 6.87498 11.4583C6.87498 13.1842 8.27409 14.5833 9.99998 14.5833C11.7259 14.5833 13.125 13.1842 13.125 11.4583C13.125 9.73244 11.7259 8.33333 9.99998 8.33333Z" fill="#787878"/>
</g>
</svg>
